 http://www.imdb.com/title/tt0244794/
 
http://en.wikipedia.org/wiki/Sirf_Tum

Source                                   : DVD9
Format                                   : Matroska
Format version                           : Version 2
File size                                : 2.76 GiB
Duration                                 : 2h 41mn
Overall bit rate mode                    : Variable
Overall bit rate                         : 2 443 Kbps

Video
ID                                       : 1
Format                                   : AVC
Format/Info                              : Advanced Video Codec
Format profile                           : High@L4.1
Format settings, CABAC                   : Yes
Format settings, ReFrames                : 4 frames
Muxing mode                              : Header stripping
Codec ID                                 : V_MPEG4/ISO/AVC
Duration                                 : 2h 41mn
Bit rate mode                            : Variable
Bit rate                                 : 2 000 Kbps
Maximum bit rate                         : 4 000 Kbps
Width                                    : 1 280 pixels
Height                                   : 544 pixels
Display aspect ratio                     : 2.35:1
Original display aspect ratio            : 2.35:1
Frame rate                               : 24.000 fps
Color space                              : YUV
Chroma subsampling                       : 4:2:0
Bit depth                                : 8 bits
Scan type                                : Progressive
Bits/(Pixel*Frame)                       : 0.120
Stream size                              : 2.20 GiB (80%)

Audio
ID                                       : 2
Format                                   : AC-3
Bit rate mode                            : Constant
Bit rate                                 : 448 Kbps
Channel(s)                               : 6 channels
Channel positions                        : Front: L C R, Side: L R, LFE
Sampling rate                            : 48.0 KHz
Bit depth                                : 16 bits
Compression mode                         : Lossy
Stream size                              : 517 MiB (18%)

Sample                                       : Yes
 
http://www.freeimgsharing.com/images/40045291706596654689.png
 
http://www.freeimgsharing.com/images/43064691225905837489.png
 
http://www.freeimgsharing.com/images/65800005943695450699.png
 
http://www.freeimgsharing.com/images/27847196461600717986.png
 
http://www.freeimgsharing.com/images/29819499129410006704.png
 
http://www.freeimgsharing.com/images/20400341553156594656.png
 
http://www.freeimgsharing.com/images/34042108519110156192.png
 
http://www.freeimgsharing.com/images/37261687753184445826.png
 
http://www.freeimgsharing.com/images/93883588847140647141.png
 
http://www.freeimgsharing.com/images/89881955640245555875.png